<svg width="145" height="26" viewBox="0 0 145 26" fill="none" xmlns="http://www.w3.org/2000/svg">
<path d="M42.0424 14.9982L38.6359 18.4047L46.2313 26.0001L49.6378 22.5936L42.0424 14.9982Z" fill="black"/>
<path d="M5.89402 21.53C4.06196 20.5438 2.62105 19.1798 1.57129 17.4313C0.524878 15.6828 0 13.707 0 11.5039C0 9.30071 0.524878 7.3249 1.57464 5.57642C2.62439 3.82793 4.0653 2.46058 5.89736 1.47768C7.72608 0.491447 9.78881 0 12.0755 0C14.0046 0 15.7464 0.337661 17.3043 1.01632C18.8622 1.69499 20.1694 2.66785 21.2292 3.93826L17.9228 6.99058C16.4183 5.25213 14.5528 4.38624 12.3296 4.38624C10.9522 4.38624 9.7253 4.68713 8.64211 5.29224C7.55892 5.89736 6.71978 6.7365 6.11467 7.81968C5.50955 8.90287 5.20867 10.1298 5.20867 11.5072C5.20867 12.8846 5.50955 14.1115 6.11467 15.1947C6.71978 16.2746 7.55892 17.1171 8.64211 17.7222C9.72195 18.3273 10.9522 18.6282 12.3296 18.6282C14.5528 18.6282 16.4183 17.7489 17.9228 15.9904L21.2292 19.0394C20.1694 20.3332 18.8555 21.3161 17.2876 21.9947C15.7196 22.6734 13.9711 23.0111 12.0455 23.0111C9.77544 23.0077 7.72608 22.5163 5.89402 21.53Z" fill="#009C7C"/>
<path d="M28.7413 21.5133C26.8858 20.5171 25.4349 19.1464 24.3885 17.3979C23.3421 15.6494 22.8138 13.687 22.8138 11.5039C22.8138 9.32077 23.3387 7.35833 24.3885 5.60985C25.4382 3.86137 26.8892 2.49066 28.7413 1.4944C30.5968 0.498133 32.6796 0 34.9863 0C37.2965 0 39.3726 0.498133 41.2147 1.4944C43.0568 2.49066 44.5077 3.86137 45.5675 5.60985C46.6273 7.35833 47.1555 9.32411 47.1555 11.5039C47.1555 13.687 46.6273 15.6494 45.5675 17.3979C44.5077 19.1464 43.0568 20.5171 41.2147 21.5133C39.3726 22.5096 37.2965 23.0077 34.9863 23.0077C32.6796 23.0077 30.5968 22.5096 28.7413 21.5133ZM38.5468 17.7155C39.6066 17.1104 40.4391 16.2679 41.0408 15.188C41.6459 14.1082 41.9468 12.8779 41.9468 11.5005C41.9468 10.1231 41.6459 8.89619 41.0408 7.813C40.4357 6.72981 39.6066 5.89067 38.5468 5.28556C37.487 4.68044 36.3002 4.37956 34.9863 4.37956C33.6725 4.37956 32.4856 4.68044 31.4259 5.28556C30.3661 5.89067 29.5336 6.72981 28.9319 7.813C28.3301 8.89619 28.0259 10.1231 28.0259 11.5005C28.0259 12.8779 28.3267 14.1049 28.9319 15.188C29.537 16.2679 30.3661 17.1104 31.4259 17.7155C32.4856 18.3206 33.6725 18.6215 34.9863 18.6215C36.3002 18.6215 37.487 18.3206 38.5468 17.7155Z" fill="#009C7C"/>
<path d="M71.2765 22.6266L71.2464 9.28063L64.7005 20.2763H62.3803L55.8645 9.5648V22.6266H51.0336V0.381104H55.2928L63.6173 14.2051L71.8147 0.381104H76.0405L76.104 22.6266H71.2765Z" fill="#009C7C"/>
<path d="M96.143 1.36734C97.5939 2.0226 98.7105 2.95535 99.4962 4.16223C100.278 5.36912 100.673 6.8 100.673 8.45153C100.673 10.083 100.282 11.5072 99.4962 12.7241C98.7105 13.9444 97.5939 14.8738 96.143 15.519C94.692 16.1642 92.9804 16.4885 91.0112 16.4885H86.5314V22.6232H81.3829V0.381104H91.0112C92.9804 0.381104 94.692 0.708735 96.143 1.36734ZM94.2541 11.2966C95.0598 10.6279 95.461 9.68182 95.461 8.45153C95.461 7.20118 95.0598 6.24169 94.2541 5.5764C93.4484 4.9111 92.2716 4.57679 90.727 4.57679H86.5314V12.2995H90.727C92.2716 12.2995 93.4484 11.9652 94.2541 11.2966Z" fill="#009C7C"/>
<path d="M117.864 17.8592H107.537L105.567 22.6266H100.292L110.208 0.381104H115.293L125.239 22.6266H119.836L117.864 17.8592ZM116.242 13.951L112.715 5.43598L109.188 13.951H116.242Z" fill="#009C7C"/>
<path d="M129.765 22.2923C128.124 21.8142 126.803 21.1957 125.81 20.4335L127.559 16.5554C128.512 17.2541 129.645 17.8158 130.959 18.2404C132.273 18.6649 133.587 18.8756 134.9 18.8756C136.361 18.8756 137.441 18.6583 138.143 18.2236C138.842 17.789 139.193 17.2107 139.193 16.4919C139.193 15.9637 138.986 15.5224 138.575 15.1747C138.16 14.8236 137.632 14.5462 136.987 14.3322C136.341 14.1216 135.465 13.8875 134.366 13.6335C132.671 13.2323 131.283 12.8278 130.203 12.4266C129.123 12.0254 128.197 11.3768 127.422 10.4875C126.65 9.59825 126.262 8.41143 126.262 6.92706C126.262 5.63659 126.613 4.46314 127.311 3.41672C128.01 2.37031 129.063 1.53786 130.474 0.922716C131.872 0.307572 133.593 0 135.629 0C137.047 0 138.438 0.170502 139.792 0.508162C141.146 0.845823 142.332 1.33393 143.352 1.96913L141.764 5.8773C139.708 4.71388 137.655 4.12882 135.599 4.12882C134.158 4.12882 133.095 4.36284 132.406 4.82754C131.718 5.29224 131.373 5.90739 131.373 6.66963C131.373 7.43188 131.771 8.00022 132.564 8.37131C133.359 8.7424 134.569 9.10681 136.201 9.46787C137.896 9.86905 139.283 10.2736 140.363 10.6748C141.443 11.0759 142.369 11.7145 143.145 12.5804C143.917 13.4496 144.305 14.6264 144.305 16.1074C144.305 17.3778 143.95 18.5379 143.242 19.5877C142.533 20.6374 141.466 21.4665 140.049 22.0817C138.628 22.6968 136.903 23.0044 134.87 23.0044C133.105 23.0077 131.407 22.7704 129.765 22.2923Z" fill="#009C7C"/>
<path d="M18.3874 8.02356H16.3815V15.0442H18.3874V8.02356Z" fill="black"/>
<path d="M33.7661 8.02356H31.7602V15.0442H33.7661V8.02356Z" fill="black"/>
<path d="M20.059 8.02356H19.0561V15.0442H20.059V8.02356Z" fill="black"/>
<path d="M35.1033 8.02356H34.4347V15.0442H35.1033V8.02356Z" fill="black"/>
<path d="M21.7306 8.02356H20.7277V15.0442H21.7306V8.02356Z" fill="black"/>
<path d="M31.0915 8.02356H30.0886V15.0442H31.0915V8.02356Z" fill="black"/>
</svg>
